<svg xmlns="http://www.w3.org/2000/svg" version="1.1" xmlns:xlink="http://www.w3.org/1999/xlink" xmlns:svgjs="http://svgjs.dev/svgjs" viewBox="0 0 1422 800"><g fill="hsl(352, 100%, 76%)"><circle r="0.5" cx="716" cy="400" opacity="0.41"></circle><circle r="0.5" cx="713" cy="406" opacity="0.81"></circle><circle r="0.5" cx="705" cy="404" opacity="0.79"></circle><circle r="0.5" cx="704" cy="394" opacity="0.95"></circle><circle r="0.5" cx="715" cy="391" opacity="0.69"></circle><circle r="0.5" cx="722" cy="401" opacity="0.66"></circle><circle r="0.5" cx="713" cy="412" opacity="0.61"></circle><circle r="0.5" cx="699" cy="406" opacity="0.65"></circle><circle r="0.5" cx="701" cy="389" opacity="0.85"></circle><circle r="0.5" cx="719" cy="386" opacity="0.63"></circle><circle r="0.5" cx="728" cy="404" opacity="0.11"></circle><circle r="0.5" cx="712" cy="419" opacity="0.39"></circle><circle r="0.5" cx="692" cy="407" opacity="0.82"></circle><circle r="0.5" cx="698" cy="383" opacity="0.53"></circle><circle r="0.5" cx="725" cy="382" opacity="0.45"></circle><circle r="0.5" cx="734" cy="408" opacity="0.83"></circle><circle r="0.5" cx="709" cy="425" opacity="0.76"></circle><circle r="0.5" cx="685" cy="406" opacity="0.96"></circle><circle r="0.5" cx="697" cy="376" opacity="0.80"></circle><circle r="0.5" cx="731" cy="379" opacity="0.71"></circle><circle r="0.5" cx="738" cy="414" opacity="0.24"></circle><circle r="0.5" cx="705" cy="431" opacity="0.77"></circle><circle r="0.5" cx="678" cy="404" opacity="0.32"></circle><circle r="0.5" cx="697" cy="368" opacity="0.69"></circle><circle r="0.5" cx="738" cy="377" opacity="0.24"></circle><circle r="0.5" cx="742" cy="420" opacity="0.34"></circle><circle r="0.5" cx="700" cy="437" opacity="0.43"></circle><circle r="0.5" cx="671" cy="400" opacity="0.55"></circle><circle r="0.5" cx="699" cy="361" opacity="0.59"></circle><circle r="1" cx="746" cy="377" opacity="0.58"></circle><circle r="1" cx="744" cy="428" opacity="0.89"></circle><circle r="1" cx="693" cy="441" opacity="0.85"></circle><circle r="1" cx="665" cy="395" opacity="0.67"></circle><circle r="1" cx="703" cy="353" opacity="0.95"></circle><circle r="1" cx="754" cy="378" opacity="0.64"></circle><circle r="1" cx="745" cy="436" opacity="0.77"></circle><circle r="1" cx="685" cy="444" opacity="0.62"></circle><circle r="1" cx="660" cy="388" opacity="0.66"></circle><circle r="1" cx="708" cy="346" opacity="0.62"></circle><circle r="1" cx="763" cy="381" opacity="0.85"></circle><circle r="1" cx="744" cy="445" opacity="0.96"></circle><circle r="1" cx="677" cy="446" opacity="0.78"></circle><circle r="1" cx="656" cy="380" opacity="0.20"></circle><circle r="1" cx="715" cy="340" opacity="0.46"></circle><circle r="1" cx="771" cy="386" opacity="0.28"></circle><circle r="1" cx="742" cy="454" opacity="0.70"></circle><circle r="1" cx="667" cy="446" opacity="0.69"></circle><circle r="1" cx="653" cy="371" opacity="0.83"></circle><circle r="1" cx="723" cy="335" opacity="0.43"></circle><circle r="1" cx="778" cy="392" opacity="0.75"></circle><circle r="1" cx="738" cy="463" opacity="0.30"></circle><circle r="1" cx="657" cy="445" opacity="0.69"></circle><circle r="1" cx="651" cy="360" opacity="0.92"></circle><circle r="1" cx="732" cy="330" opacity="0.88"></circle><circle r="1" cx="785" cy="400" opacity="0.81"></circle><circle r="1" cx="732" cy="472" opacity="0.91"></circle><circle r="1" cx="647" cy="442" opacity="0.91"></circle><circle r="1" cx="652" cy="350" opacity="0.78"></circle><circle r="1" cx="743" cy="327" opacity="0.43"></circle><circle r="1" cx="791" cy="410" opacity="0.92"></circle><circle r="1" cx="725" cy="481" opacity="0.36"></circle><circle r="1" cx="637" cy="437" opacity="0.38"></circle><circle r="1" cx="653" cy="338" opacity="0.17"></circle><circle r="1" cx="754" cy="326" opacity="0.72"></circle><circle r="1" cx="795" cy="421" opacity="0.98"></circle><circle r="1" cx="716" cy="488" opacity="0.43"></circle><circle r="1" cx="627" cy="430" opacity="0.71"></circle><circle r="1" cx="657" cy="327" opacity="0.58"></circle><circle r="1" cx="766" cy="327" opacity="0.66"></circle><circle r="1" cx="798" cy="432" opacity="0.95"></circle><circle r="1" cx="705" cy="494" opacity="0.56"></circle><circle r="1" cx="618" cy="422" opacity="0.95"></circle><circle r="1" cx="663" cy="316" opacity="0.81"></circle><circle r="1" cx="779" cy="329" opacity="0.62"></circle><circle r="1" cx="800" cy="445" opacity="0.90"></circle><circle r="1" cx="693" cy="499" opacity="0.41"></circle><circle r="1" cx="609" cy="411" opacity="0.37"></circle><circle r="1" cx="671" cy="305" opacity="0.70"></circle><circle r="1" cx="792" cy="333" opacity="0.27"></circle><circle r="1" cx="799" cy="459" opacity="0.21"></circle><circle r="1" cx="679" cy="503" opacity="0.82"></circle><circle r="1" cx="602" cy="399" opacity="0.93"></circle><circle r="1" cx="680" cy="294" opacity="0.21"></circle><circle r="1" cx="804" cy="340" opacity="0.85"></circle><circle r="1" cx="797" cy="473" opacity="0.83"></circle><circle r="1" cx="665" cy="504" opacity="0.26"></circle><circle r="1.5" cx="597" cy="386" opacity="0.35"></circle><circle r="1.5" cx="692" cy="285" opacity="0.77"></circle><circle r="1.5" cx="817" cy="348" opacity="0.48"></circle><circle r="1.5" cx="792" cy="487" opacity="0.15"></circle><circle r="1.5" cx="650" cy="504" opacity="0.70"></circle><circle r="1.5" cx="593" cy="371" opacity="0.62"></circle><circle r="1.5" cx="705" cy="277" opacity="0.64"></circle><circle r="1.5" cx="828" cy="359" opacity="0.84"></circle><circle r="1.5" cx="785" cy="501" opacity="0.20"></circle><circle r="1.5" cx="635" cy="501" opacity="0.85"></circle><circle r="1.5" cx="591" cy="355" opacity="0.79"></circle><circle r="1.5" cx="720" cy="271" opacity="0.85"></circle><circle r="1.5" cx="838" cy="371" opacity="0.14"></circle><circle r="1.5" cx="776" cy="515" opacity="0.59"></circle><circle r="1.5" cx="619" cy="496" opacity="0.58"></circle><circle r="1.5" cx="592" cy="339" opacity="0.30"></circle><circle r="1.5" cx="736" cy="267" opacity="0.49"></circle><circle r="1.5" cx="847" cy="385" opacity="0.41"></circle><circle r="1.5" cx="764" cy="527" opacity="0.74"></circle><circle r="1.5" cx="603" cy="489" opacity="0.62"></circle><circle r="1.5" cx="594" cy="322" opacity="0.71"></circle><circle r="1.5" cx="753" cy="264" opacity="0.38"></circle><circle r="1.5" cx="854" cy="401" opacity="0.81"></circle><circle r="1.5" cx="751" cy="539" opacity="0.44"></circle><circle r="1.5" cx="588" cy="479" opacity="0.31"></circle><circle r="1.5" cx="599" cy="304" opacity="0.13"></circle><circle r="1.5" cx="771" cy="264" opacity="0.88"></circle><circle r="1.5" cx="859" cy="419" opacity="0.99"></circle><circle r="1.5" cx="736" cy="549" opacity="0.83"></circle><circle r="1.5" cx="574" cy="467" opacity="0.83"></circle><circle r="1.5" cx="607" cy="287" opacity="0.95"></circle><circle r="1.5" cx="790" cy="267" opacity="0.91"></circle><circle r="1.5" cx="862" cy="438" opacity="0.40"></circle><circle r="1.5" cx="718" cy="557" opacity="0.78"></circle><circle r="1.5" cx="561" cy="453" opacity="0.92"></circle><circle r="1.5" cx="617" cy="271" opacity="0.41"></circle><circle r="1.5" cx="809" cy="272" opacity="0.51"></circle><circle r="1.5" cx="863" cy="457" opacity="0.86"></circle><circle r="1.5" cx="700" cy="563" opacity="0.83"></circle><circle r="1.5" cx="550" cy="436" opacity="0.17"></circle><circle r="1.5" cx="630" cy="255" opacity="0.54"></circle><circle r="1.5" cx="827" cy="279" opacity="0.91"></circle><circle r="1.5" cx="861" cy="478" opacity="0.21"></circle><circle r="1.5" cx="679" cy="567" opacity="0.27"></circle><circle r="1.5" cx="541" cy="418" opacity="0.41"></circle><circle r="1.5" cx="645" cy="241" opacity="0.11"></circle><circle r="1.5" cx="846" cy="290" opacity="0.38"></circle><circle r="1.5" cx="856" cy="498" opacity="0.17"></circle><circle r="1.5" cx="658" cy="568" opacity="0.77"></circle><circle r="1.5" cx="533" cy="398" opacity="0.63"></circle><circle r="1.5" cx="662" cy="228" opacity="0.68"></circle><circle r="1.5" cx="863" cy="303" opacity="0.97"></circle><circle r="1.5" cx="849" cy="519" opacity="0.20"></circle><circle r="1.5" cx="636" cy="567" opacity="0.91"></circle><circle r="1.5" cx="528" cy="376" opacity="0.30"></circle><circle r="1.5" cx="681" cy="217" opacity="0.81"></circle><circle r="1.5" cx="879" cy="318" opacity="0.67"></circle><circle r="2" cx="838" cy="538" opacity="0.16"></circle><circle r="2" cx="614" cy="563" opacity="0.92"></circle><circle r="2" cx="526" cy="354" opacity="0.52"></circle><circle r="2" cx="702" cy="208" opacity="0.84"></circle><circle r="2" cx="893" cy="336" opacity="1.00"></circle><circle r="2" cx="825" cy="558" opacity="0.89"></circle><circle r="2" cx="592" cy="555" opacity="0.88"></circle><circle r="2" cx="527" cy="330" opacity="0.35"></circle><circle r="2" cx="725" cy="202" opacity="0.57"></circle><circle r="2" cx="906" cy="357" opacity="0.80"></circle><circle r="2" cx="809" cy="575" opacity="0.17"></circle><circle r="2" cx="570" cy="545" opacity="0.40"></circle><circle r="2" cx="531" cy="306" opacity="0.25"></circle><circle r="2" cx="749" cy="199" opacity="1.00"></circle><circle r="2" cx="916" cy="379" opacity="0.35"></circle><circle r="2" cx="790" cy="591" opacity="0.19"></circle><circle r="2" cx="549" cy="532" opacity="0.93"></circle><circle r="2" cx="537" cy="282" opacity="0.13"></circle><circle r="2" cx="775" cy="199" opacity="0.85"></circle><circle r="2" cx="923" cy="403" opacity="0.75"></circle><circle r="2" cx="769" cy="606" opacity="0.24"></circle><circle r="2" cx="530" cy="515" opacity="0.59"></circle><circle r="2" cx="548" cy="259" opacity="0.86"></circle><circle r="2" cx="800" cy="202" opacity="0.23"></circle><circle r="2" cx="928" cy="429" opacity="0.64"></circle><circle r="2" cx="746" cy="617" opacity="0.28"></circle><circle r="2" cx="512" cy="496" opacity="0.12"></circle><circle r="2" cx="561" cy="236" opacity="0.72"></circle><circle r="2" cx="826" cy="208" opacity="0.95"></circle><circle r="2" cx="929" cy="455" opacity="0.78"></circle><circle r="2" cx="721" cy="626" opacity="0.61"></circle><circle r="2" cx="496" cy="474" opacity="0.69"></circle><circle r="2" cx="577" cy="214" opacity="0.55"></circle><circle r="2" cx="851" cy="218" opacity="0.75"></circle><circle r="2" cx="927" cy="483" opacity="0.30"></circle><circle r="2" cx="694" cy="632" opacity="0.34"></circle><circle r="2" cx="482" cy="450" opacity="0.68"></circle><circle r="2" cx="597" cy="194" opacity="0.14"></circle><circle r="2" cx="876" cy="231" opacity="0.78"></circle><circle r="2" cx="922" cy="510" opacity="0.57"></circle><circle r="2" cx="666" cy="635" opacity="0.61"></circle><circle r="2" cx="472" cy="424" opacity="0.63"></circle><circle r="2" cx="619" cy="176" opacity="0.75"></circle><circle r="2" cx="900" cy="247" opacity="0.49"></circle><circle r="2" cx="913" cy="538" opacity="0.84"></circle><circle r="2" cx="636" cy="634" opacity="0.76"></circle><circle r="2" cx="464" cy="396" opacity="0.69"></circle><circle r="2" cx="644" cy="161" opacity="0.98"></circle><circle r="2" cx="922" cy="267" opacity="0.15"></circle><circle r="2" cx="900" cy="565" opacity="0.11"></circle><circle r="2" cx="607" cy="630" opacity="0.34"></circle><circle r="2" cx="460" cy="366" opacity="0.59"></circle><circle r="2" cx="671" cy="149" opacity="0.22"></circle><circle r="2" cx="942" cy="289" opacity="0.91"></circle><circle r="2" cx="884" cy="590" opacity="0.52"></circle><circle r="2" cx="578" cy="621" opacity="0.68"></circle><circle r="2.5" cx="459" cy="335" opacity="0.45"></circle><circle r="2.5" cx="701" cy="139" opacity="0.80"></circle><circle r="2.5" cx="959" cy="315" opacity="0.23"></circle><circle r="2.5" cx="864" cy="614" opacity="0.51"></circle><circle r="2.5" cx="549" cy="609" opacity="0.25"></circle><circle r="2.5" cx="463" cy="304" opacity="0.69"></circle><circle r="2.5" cx="732" cy="133" opacity="0.34"></circle><circle r="2.5" cx="974" cy="343" opacity="0.16"></circle><circle r="2.5" cx="842" cy="636" opacity="0.47"></circle><circle r="2.5" cx="521" cy="594" opacity="0.81"></circle><circle r="2.5" cx="470" cy="273" opacity="0.45"></circle><circle r="2.5" cx="764" cy="131" opacity="0.93"></circle><circle r="2.5" cx="985" cy="373" opacity="0.23"></circle><circle r="2.5" cx="815" cy="656" opacity="0.90"></circle><circle r="2.5" cx="495" cy="574" opacity="0.20"></circle><circle r="2.5" cx="481" cy="242" opacity="0.89"></circle><circle r="2.5" cx="797" cy="133" opacity="0.63"></circle><circle r="2.5" cx="992" cy="406" opacity="0.31"></circle><circle r="2.5" cx="787" cy="672" opacity="0.72"></circle><circle r="2.5" cx="471" cy="551" opacity="0.53"></circle><circle r="2.5" cx="496" cy="212" opacity="0.51"></circle><circle r="2.5" cx="830" cy="139" opacity="0.76"></circle><circle r="2.5" cx="996" cy="439" opacity="0.93"></circle><circle r="2.5" cx="755" cy="686" opacity="0.44"></circle><circle r="2.5" cx="449" cy="525" opacity="0.76"></circle><circle r="2.5" cx="515" cy="184" opacity="0.34"></circle><circle r="2.5" cx="863" cy="149" opacity="0.91"></circle><circle r="2.5" cx="996" cy="474" opacity="0.98"></circle><circle r="2.5" cx="722" cy="695" opacity="0.56"></circle><circle r="2.5" cx="430" cy="496" opacity="0.18"></circle><circle r="2.5" cx="538" cy="157" opacity="0.22"></circle><circle r="2.5" cx="895" cy="164" opacity="0.53"></circle><circle r="2.5" cx="991" cy="509" opacity="0.93"></circle><circle r="2.5" cx="687" cy="701" opacity="0.15"></circle><circle r="2.5" cx="415" cy="464" opacity="0.93"></circle><circle r="2.5" cx="564" cy="133" opacity="1.00"></circle><circle r="2.5" cx="926" cy="182" opacity="0.61"></circle><circle r="2.5" cx="982" cy="544" opacity="0.59"></circle><circle r="2.5" cx="651" cy="702" opacity="0.84"></circle><circle r="2.5" cx="403" cy="429" opacity="0.25"></circle><circle r="2.5" cx="594" cy="112" opacity="0.96"></circle><circle r="2.5" cx="955" cy="205" opacity="0.20"></circle><circle r="2.5" cx="969" cy="578" opacity="0.87"></circle><circle r="2.5" cx="614" cy="699" opacity="0.57"></circle><circle r="2.5" cx="395" cy="393" opacity="0.81"></circle><circle r="2.5" cx="627" cy="94" opacity="0.59"></circle><circle r="2.5" cx="981" cy="231" opacity="0.75"></circle><circle r="2.5" cx="951" cy="611" opacity="0.83"></circle><circle r="2.5" cx="577" cy="692" opacity="0.19"></circle><circle r="2.5" cx="392" cy="355" opacity="0.71"></circle><circle r="2.5" cx="662" cy="80" opacity="0.37"></circle><circle r="2.5" cx="1005" cy="261" opacity="0.82"></circle><circle r="2.5" cx="929" cy="642" opacity="0.50"></circle><circle r="2.5" cx="541" cy="680" opacity="0.33"></circle><circle r="2.5" cx="393" cy="317" opacity="0.29"></circle><circle r="2.5" cx="700" cy="70" opacity="0.69"></circle><circle r="2.5" cx="1025" cy="294" opacity="0.64"></circle><circle r="3" cx="903" cy="671" opacity="0.50"></circle><circle r="3" cx="505" cy="663" opacity="0.29"></circle><circle r="3" cx="399" cy="278" opacity="0.95"></circle><circle r="3" cx="739" cy="65" opacity="0.69"></circle><circle r="3" cx="1041" cy="330" opacity="0.93"></circle><circle r="3" cx="873" cy="698" opacity="0.70"></circle><circle r="3" cx="472" cy="642" opacity="0.40"></circle><circle r="3" cx="409" cy="239" opacity="0.58"></circle><circle r="3" cx="779" cy="64" opacity="0.89"></circle><circle r="3" cx="1054" cy="368" opacity="0.86"></circle><circle r="3" cx="840" cy="720" opacity="0.55"></circle><circle r="3" cx="440" cy="616" opacity="0.15"></circle><circle r="3" cx="425" cy="202" opacity="0.12"></circle><circle r="3" cx="819" cy="68" opacity="0.33"></circle><circle r="3" cx="1061" cy="409" opacity="0.69"></circle><circle r="3" cx="803" cy="740" opacity="0.22"></circle><circle r="3" cx="411" cy="587" opacity="0.73"></circle><circle r="3" cx="445" cy="165" opacity="0.98"></circle><circle r="3" cx="860" cy="77" opacity="0.43"></circle><circle r="3" cx="1064" cy="450" opacity="0.64"></circle><circle r="3" cx="764" cy="754" opacity="0.15"></circle><circle r="3" cx="386" cy="553" opacity="0.52"></circle><circle r="3" cx="470" cy="131" opacity="0.21"></circle><circle r="3" cx="900" cy="91" opacity="0.72"></circle><circle r="3" cx="1062" cy="493" opacity="0.40"></circle><circle r="3" cx="723" cy="764" opacity="0.18"></circle><circle r="3" cx="364" cy="516" opacity="0.85"></circle><circle r="3" cx="499" cy="100" opacity="0.58"></circle><circle r="3" cx="939" cy="110" opacity="0.33"></circle><circle r="3" cx="1055" cy="536" opacity="0.78"></circle><circle r="3" cx="680" cy="770" opacity="0.20"></circle><circle r="3" cx="347" cy="476" opacity="0.66"></circle><circle r="3" cx="533" cy="72" opacity="0.26"></circle><circle r="3" cx="975" cy="134" opacity="0.78"></circle><circle r="3" cx="1043" cy="578" opacity="0.23"></circle><circle r="3" cx="636" cy="770" opacity="0.77"></circle><circle r="3" cx="334" cy="434" opacity="0.30"></circle><circle r="3" cx="570" cy="47" opacity="0.91"></circle><circle r="3" cx="1010" cy="163" opacity="0.22"></circle><circle r="3" cx="1025" cy="619" opacity="0.80"></circle><circle r="3" cx="591" cy="765" opacity="0.82"></circle><circle r="3" cx="326" cy="389" opacity="0.97"></circle><circle r="3" cx="610" cy="27" opacity="0.14"></circle><circle r="3" cx="1041" cy="196" opacity="0.19"></circle><circle r="3" cx="1002" cy="658" opacity="0.34"></circle><circle r="3" cx="547" cy="754" opacity="0.52"></circle><circle r="3" cx="323" cy="344" opacity="0.58"></circle><circle r="3" cx="654" cy="11" opacity="0.63"></circle><circle r="3" cx="1068" cy="233" opacity="0.71"></circle><circle r="3" cx="974" cy="695" opacity="0.80"></circle><circle r="3" cx="503" cy="738" opacity="0.89"></circle><circle r="3" cx="327" cy="297" opacity="0.53"></circle><circle r="3" cx="699" cy="1" opacity="0.93"></circle><circle r="3" cx="1091" cy="274" opacity="0.51"></circle><circle r="3" cx="942" cy="729" opacity="0.70"></circle><circle r="3" cx="461" cy="716" opacity="0.16"></circle><circle r="3" cx="335" cy="251" opacity="0.12"></circle><circle r="3.5" cx="746" cy="-4" opacity="0.22"></circle><circle r="3.5" cx="1109" cy="318" opacity="0.54"></circle><circle r="3.5" cx="905" cy="759" opacity="0.10"></circle><circle r="3.5" cx="421" cy="690" opacity="0.80"></circle><circle r="3.5" cx="349" cy="205" opacity="0.26"></circle><circle r="3.5" cx="794" cy="-4" opacity="0.32"></circle><circle r="3.5" cx="1123" cy="364" opacity="0.79"></circle><circle r="3.5" cx="864" cy="785" opacity="0.13"></circle><circle r="3.5" cx="385" cy="658" opacity="0.26"></circle><circle r="3.5" cx="369" cy="161" opacity="0.88"></circle><circle r="3.5" cx="843" cy="3" opacity="0.69"></circle><circle r="3.5" cx="1131" cy="412" opacity="0.95"></circle><circle r="3.5" cx="820" cy="807" opacity="0.29"></circle><circle r="3.5" cx="351" cy="621" opacity="0.39"></circle><circle r="3.5" cx="395" cy="118" opacity="0.15"></circle><circle r="3.5" cx="891" cy="15" opacity="0.75"></circle><circle r="3.5" cx="1133" cy="462" opacity="0.61"></circle><circle r="3.5" cx="772" cy="823" opacity="0.25"></circle><circle r="3.5" cx="322" cy="581" opacity="0.22"></circle><circle r="3.5" cx="426" cy="78" opacity="0.47"></circle><circle r="3.5" cx="938" cy="33" opacity="0.50"></circle><circle r="3.5" cx="1129" cy="513" opacity="0.46"></circle><circle r="3.5" cx="723" cy="834" opacity="0.74"></circle><circle r="3.5" cx="298" cy="536" opacity="0.80"></circle><circle r="3.5" cx="461" cy="42" opacity="0.41"></circle><circle r="3.5" cx="983" cy="57" opacity="0.95"></circle><circle r="3.5" cx="1119" cy="563" opacity="0.56"></circle><circle r="3.5" cx="672" cy="838" opacity="0.40"></circle><circle r="3.5" cx="278" cy="488" opacity="0.73"></circle><circle r="3.5" cx="502" cy="10" opacity="0.26"></circle><circle r="3.5" cx="1026" cy="87" opacity="0.17"></circle><circle r="3.5" cx="1102" cy="612" opacity="0.75"></circle><circle r="3.5" cx="620" cy="837" opacity="0.79"></circle><circle r="3.5" cx="265" cy="438" opacity="0.34"></circle><circle r="3.5" cx="546" cy="-18" opacity="0.37"></circle><circle r="3.5" cx="1065" cy="122" opacity="0.40"></circle><circle r="3.5" cx="1080" cy="660" opacity="0.86"></circle><circle r="3.5" cx="567" cy="830" opacity="0.59"></circle><circle r="3.5" cx="257" cy="385" opacity="0.35"></circle><circle r="3.5" cx="595" cy="-40" opacity="0.97"></circle><circle r="3.5" cx="1101" cy="161" opacity="0.72"></circle><circle r="3.5" cx="1052" cy="706" opacity="0.12"></circle><circle r="3.5" cx="515" cy="816" opacity="0.43"></circle><circle r="3.5" cx="255" cy="332" opacity="0.11"></circle><circle r="3.5" cx="646" cy="-57" opacity="0.97"></circle><circle r="3.5" cx="1132" cy="206" opacity="0.15"></circle><circle r="3.5" cx="1018" cy="748" opacity="0.64"></circle><circle r="3.5" cx="465" cy="795" opacity="0.63"></circle><circle r="3.5" cx="260" cy="277" opacity="0.55"></circle><circle r="3.5" cx="699" cy="-68" opacity="0.61"></circle><circle r="3.5" cx="1157" cy="254" opacity="0.39"></circle><circle r="3.5" cx="979" cy="787" opacity="0.28"></circle><circle r="3.5" cx="416" cy="769" opacity="0.99"></circle><circle r="3.5" cx="272" cy="223" opacity="0.26"></circle><circle r="3.5" cx="755" cy="-73" opacity="0.40"></circle><circle r="3.5" cx="1178" cy="306" opacity="0.99"></circle><circle r="3.5" cx="936" cy="821" opacity="0.66"></circle><circle r="4" cx="371" cy="737" opacity="0.91"></circle><circle r="4" cx="290" cy="170" opacity="0.44"></circle><circle r="4" cx="811" cy="-71" opacity="0.48"></circle><circle r="4" cx="1192" cy="360" opacity="0.93"></circle><circle r="4" cx="887" cy="850" opacity="0.10"></circle><circle r="4" cx="329" cy="699" opacity="0.32"></circle><circle r="4" cx="314" cy="119" opacity="0.57"></circle><circle r="4" cx="867" cy="-62" opacity="0.84"></circle><circle r="4" cx="1200" cy="417" opacity="0.83"></circle><circle r="4" cx="835" cy="874" opacity="0.24"></circle><circle r="4" cx="291" cy="656" opacity="0.46"></circle><circle r="4" cx="345" cy="70" opacity="0.41"></circle><circle r="4" cx="922" cy="-46" opacity="0.88"></circle><circle r="4" cx="1201" cy="475" opacity="0.19"></circle><circle r="4" cx="780" cy="892" opacity="0.81"></circle><circle r="4" cx="259" cy="608" opacity="0.89"></circle><circle r="4" cx="382" cy="25" opacity="0.73"></circle><circle r="4" cx="976" cy="-24" opacity="0.79"></circle><circle r="4" cx="1195" cy="533" opacity="0.78"></circle><circle r="4" cx="722" cy="903" opacity="0.38"></circle><circle r="4" cx="231" cy="555" opacity="0.36"></circle><circle r="4" cx="424" cy="-16" opacity="0.25"></circle><circle r="4" cx="1028" cy="5" opacity="0.14"></circle><circle r="4" cx="1182" cy="591" opacity="0.47"></circle><circle r="4" cx="663" cy="907" opacity="0.51"></circle><circle r="4" cx="210" cy="500" opacity="0.24"></circle><circle r="4" cx="471" cy="-52" opacity="0.90"></circle><circle r="4" cx="1077" cy="40" opacity="0.51"></circle><circle r="4" cx="1162" cy="648" opacity="0.62"></circle><circle r="4" cx="603" cy="904" opacity="0.89"></circle><circle r="4" cx="196" cy="441" opacity="0.31"></circle><circle r="4" cx="523" cy="-83" opacity="0.73"></circle><circle r="4" cx="1121" cy="81" opacity="0.20"></circle><circle r="4" cx="1135" cy="702" opacity="0.42"></circle><circle r="4" cx="543" cy="894" opacity="0.24"></circle><circle r="4" cx="188" cy="381" opacity="0.96"></circle><circle r="4" cx="579" cy="-108" opacity="0.17"></circle><circle r="4" cx="1161" cy="128" opacity="0.97"></circle><circle r="4" cx="1102" cy="754" opacity="0.78"></circle><circle r="4" cx="484" cy="877" opacity="0.38"></circle><circle r="4" cx="187" cy="319" opacity="0.90"></circle><circle r="4" cx="639" cy="-126" opacity="0.69"></circle><circle r="4" cx="1195" cy="179" opacity="0.87"></circle><circle r="4" cx="1062" cy="802" opacity="0.21"></circle><circle r="4" cx="426" cy="853" opacity="0.52"></circle><circle r="4" cx="194" cy="257" opacity="0.45"></circle><circle r="4" cx="700" cy="-137" opacity="0.52"></circle><circle r="4" cx="1224" cy="235" opacity="0.54"></circle><circle r="4" cx="1017" cy="845" opacity="0.92"></circle><circle r="4" cx="371" cy="821" opacity="0.31"></circle><circle r="4" cx="209" cy="195" opacity="0.31"></circle><circle r="4" cx="764" cy="-141" opacity="0.14"></circle><circle r="4" cx="1246" cy="295" opacity="0.66"></circle><circle r="4" cx="966" cy="883" opacity="0.87"></circle><circle r="4" cx="320" cy="783" opacity="0.19"></circle><circle r="4" cx="230" cy="135" opacity="0.72"></circle><circle r="4" cx="828" cy="-138" opacity="0.68"></circle><circle r="4.5" cx="1261" cy="358" opacity="0.49"></circle><circle r="4.5" cx="910" cy="916" opacity="0.24"></circle><circle r="4.5" cx="273" cy="739" opacity="0.94"></circle><circle r="4.5" cx="259" cy="77" opacity="0.38"></circle><circle r="4.5" cx="892" cy="-127" opacity="0.57"></circle><circle r="4.5" cx="1269" cy="422" opacity="0.90"></circle><circle r="4.5" cx="850" cy="942" opacity="0.73"></circle><circle r="4.5" cx="231" cy="689" opacity="0.12"></circle><circle r="4.5" cx="295" cy="22" opacity="0.83"></circle><circle r="4.5" cx="955" cy="-108" opacity="0.96"></circle><circle r="4.5" cx="1268" cy="488" opacity="0.92"></circle><circle r="4.5" cx="787" cy="961" opacity="0.10"></circle><circle r="4.5" cx="195" cy="634" opacity="0.11"></circle><circle r="4.5" cx="338" cy="-29" opacity="0.58"></circle><circle r="4.5" cx="1015" cy="-81" opacity="0.25"></circle><circle r="4.5" cx="1261" cy="554" opacity="0.54"></circle><circle r="4.5" cx="721" cy="972" opacity="0.44"></circle><circle r="4.5" cx="165" cy="574" opacity="0.77"></circle><circle r="4.5" cx="387" cy="-75" opacity="0.91"></circle><circle r="4.5" cx="1074" cy="-47" opacity="0.79"></circle><circle r="4.5" cx="1245" cy="620" opacity="0.90"></circle><circle r="4.5" cx="654" cy="976" opacity="0.47"></circle><circle r="4.5" cx="142" cy="510" opacity="0.84"></circle><circle r="4.5" cx="442" cy="-115" opacity="0.89"></circle><circle r="4.5" cx="1128" cy="-7" opacity="0.61"></circle><circle r="4.5" cx="1221" cy="683" opacity="0.84"></circle><circle r="4.5" cx="586" cy="971" opacity="0.74"></circle><circle r="4.5" cx="127" cy="444" opacity="0.35"></circle><circle r="4.5" cx="501" cy="-149" opacity="0.43"></circle><circle r="4.5" cx="1177" cy="41" opacity="0.13"></circle><circle r="4.5" cx="1190" cy="745" opacity="0.73"></circle><circle r="4.5" cx="518" cy="959" opacity="0.76"></circle><circle r="4.5" cx="119" cy="375" opacity="0.77"></circle><circle r="4.5" cx="565" cy="-176" opacity="0.95"></circle><circle r="4.5" cx="1222" cy="94" opacity="0.47"></circle><circle r="4.5" cx="1151" cy="802" opacity="0.83"></circle><circle r="4.5" cx="451" cy="938" opacity="0.35"></circle><circle r="4.5" cx="120" cy="305" opacity="0.66"></circle><circle r="4.5" cx="632" cy="-195" opacity="0.76"></circle><circle r="4.5" cx="1260" cy="153" opacity="0.31"></circle><circle r="4.5" cx="1105" cy="856" opacity="0.32"></circle><circle r="4.5" cx="387" cy="910" opacity="0.11"></circle><circle r="4.5" cx="129" cy="235" opacity="0.41"></circle><circle r="4.5" cx="702" cy="-207" opacity="0.17"></circle><circle r="4.5" cx="1291" cy="217" opacity="0.18"></circle><circle r="4.5" cx="1053" cy="904" opacity="0.86"></circle><circle r="4.5" cx="326" cy="873" opacity="0.64"></circle><circle r="4.5" cx="146" cy="166" opacity="0.81"></circle><circle r="4.5" cx="773" cy="-210" opacity="0.75"></circle><circle r="4.5" cx="1314" cy="285" opacity="0.14"></circle><circle r="4.5" cx="995" cy="946" opacity="0.62"></circle><circle r="4.5" cx="268" cy="830" opacity="0.65"></circle><circle r="4.5" cx="171" cy="99" opacity="0.17"></circle><circle r="4.5" cx="845" cy="-205" opacity="0.22"></circle><circle r="4.5" cx="1330" cy="355" opacity="0.63"></circle><circle r="4.5" cx="932" cy="981" opacity="0.18"></circle><circle r="4.5" cx="216" cy="779" opacity="0.47"></circle><circle r="5" cx="205" cy="34" opacity="0.38"></circle><circle r="5" cx="917" cy="-191" opacity="0.94"></circle><circle r="5" cx="1337" cy="428" opacity="0.63"></circle><circle r="5" cx="864" cy="1009" opacity="0.54"></circle><circle r="5" cx="170" cy="722" opacity="0.78"></circle><circle r="5" cx="246" cy="-27" opacity="0.91"></circle><circle r="5" cx="987" cy="-169" opacity="0.28"></circle><circle r="5" cx="1336" cy="502" opacity="0.78"></circle><circle r="5" cx="793" cy="1029" opacity="0.86"></circle><circle r="5" cx="130" cy="659" opacity="0.72"></circle><circle r="5" cx="295" cy="-83" opacity="0.91"></circle><circle r="5" cx="1055" cy="-138" opacity="0.82"></circle><circle r="5" cx="1326" cy="576" opacity="0.23"></circle><circle r="5" cx="719" cy="1041" opacity="0.40"></circle><circle r="5" cx="98" cy="592" opacity="0.56"></circle><circle r="5" cx="351" cy="-133" opacity="0.46"></circle><circle r="5" cx="1120" cy="-99" opacity="0.25"></circle><circle r="5" cx="1307" cy="649" opacity="0.17"></circle><circle r="5" cx="644" cy="1044" opacity="0.16"></circle><circle r="5" cx="73" cy="520" opacity="0.88"></circle><circle r="5" cx="412" cy="-177" opacity="0.54"></circle><circle r="5" cx="1180" cy="-53" opacity="0.19"></circle><circle r="5" cx="1280" cy="720" opacity="0.42"></circle><circle r="5" cx="568" cy="1038" opacity="0.89"></circle><circle r="5" cx="57" cy="446" opacity="0.87"></circle><circle r="5" cx="479" cy="-214" opacity="0.20"></circle><circle r="5" cx="1234" cy="1" opacity="0.94"></circle><circle r="5" cx="1244" cy="788" opacity="0.46"></circle></g></svg>