<svg xmlns="http://www.w3.org/2000/svg" version="1.1" xmlns:xlink="http://www.w3.org/1999/xlink" xmlns:svgjs="http://svgjs.dev/svgjs" viewBox="0 0 1422 800"><defs><linearGradient x1="50%" y1="0%" x2="50%" y2="100%" id="ssscribble-grad"><stop stop-color="hsl(206, 75%, 49%)" stop-opacity="1" offset="0%"></stop><stop stop-color="hsl(331, 90%, 56%)" stop-opacity="1" offset="100%"></stop></linearGradient></defs><g fill="none" stroke-width="1.5" stroke="url(#ssscribble-grad)" stroke-linecap="round"><path d="M1981.48 679.62C1819.55 697.62 1630.14 714.65 1493.11 730.63 1464.58 746.5 1554.71 761.11 1723.79 774.23 1902.97 786.92 2017.69 797.74 2022.82 806.36 1916.99 814.12 1742.07 819.2 1565.8 821.24 1453.4 822.02 1445.62 819.36 1541.25 813.02 1703.25 805.3 1868.4 793.81 1975.88 778.6 1988.01 762.53 1899.63 743.29 1742.24 721.41 1567.32 700.16 1433.06 677.7 1380.04 655.16 1421.78 635.85 1540.32 618.73 1693.73 605.38 1834 598.55 1914.56 598.09 1911.66 605.54 1825.9 622.26 1681.93 648.63 1520.03 685.43 1380.97 731.76 1300.87 787.92 1295.62 853.03 1362.73 923.76 1479.65 999.53 1612.9 1077.57 1730.23 1152.97 1799.73 1224.07 1805.83 1287.08 1747.2 1337.68 1636.71 1373.94 1498.29 1393.15 1356.74 1394.3 1240.46 1376.84 1168 1341.45 1148.23 1292.12 1180.7 1230.98 1253.93 1162.78 1354.14 1095.26 1458.81 1032.57 1549.05 981.13 1612.58 947.87 1636.98 935.87 1620.19 948.38 1564.65 986.12 1478.61 1047.49 1373.94 1128.85 1259.76 1223.03 1151.01 1323.24 1057.54 1420.54 984.11 1504.9 937.34 1569.05 917.26 1606.07 922.71 1612.21 949.35 1586.62 991.06 1531.75 1045.36 1455.23 1103.1 1364.85 1158.66 1271.69 1211.74 1189.16 1254.84 1126.82 1286.05 1093.96 1307.15 1096.73 1314.96 1135.72 1310.74 1207.73 1296.3 1304.27 1272.41 1414.16 1241.51 1523.51 1203.81 1617.5 1162.5 1684 1119.69 1713.43 1073.6 1701.86 1028.48 1650.35 985.62 1565.86 941.66 1461.76 901.17 1352.28 864.75 1254.05 828.13 1183.34 795.95 1150.47 768.43 1161.5 740.91 1215.69 718.09 1305.04 700.09 1416.16 682.08 1531.51 669.12 1631.91 661.09 1701.96 653.05 1731.91 649.91 1716.81 651.47 1659.62 652.83 1569.17 658.51 1459.13 667.94 1345.76 676.27 1244.78 687.15 1170.5 699.29 1132.39 708.15 1134.98 715.81 1176.42 720.18 1249.48 717.76 1344.31 708.65 1446.06 690.43 1540.48 661.99 1616.09 621.86 1661.64 568.82 1671.63 505.65 1645.21 430.97 1585.37 346.69 1499.73 259.94 1397.59 171.39 1291.18 86.7 1192.09 14.59 1109.73 -42.03 1052.7 -77.04 1025.34 -86.52 1029.17 -68.87 1061.76 -24.12 1117.65 40.67 1191.07 121.21 1271.98 207.64 1351.3 284.56 1422.48 343.34 1476.65 372.1 1508.91 362.12 1517.18 311.45 1499.91 222.16 1459.09 106.17 1397.6 -23.73 1320.74 -148.63 1234.57 -246.57 1143.72 -303.19 1055.51 -307.02 975.26 -258.14 906.09 -164.9 852.46 -45.79 815.96 70.17 797.12 158.8 795.53 196.17 809.21 168.81 836.99 78.67 874.74 -58.68 918.86 -211.95 968.17 -348.26 1017.29 -434.11 1063.2 -447.6 1105.66 -385.6 1140.36 -263.96 1165.99 -55.87 1186.59 16.32 1163.29 -186.55 1123.38 -354.61 1087.06 -487.08 1045.42 -542.02 1000.03 -502.2 950.47 -380.39 899.46 -217.17 848.22 -71.48 795.47 5.95 744.1 -16.32 694.83 -133.96 645.75 -308.49 599.56 -479.07 556.47 -583.26 514.33 -583.26 475.43 -477.8 439.67 -308.49 404.92 -139.68 373.06 -39.13 343.85 -49.54 315.38 -168.68 289.17 -351.43 264.96 -524.07 241.14 -616.9 218.98 -590.17 198.31 -454.94 177.75 -266.44 158.48 -104.51 140.48 -40.01 122.48 -99.4 105.96 -255.41 90.96 -512.41 69.5 -448.87 36.52 -181.82 26.17 -52.97 20.85 -27.85 18.46 -112.52 19.25 -273.02 21.06 -444.8 26.32 -562.3 35.13 -582.72 44.89 -497.78 58.08 -339.11 74.49 -161.29 91.1 -26.17 110.16 23.07 130.96 -26.86 150.25 -154.8 169.68 -314.18 188.05 -452.73 202.24 -522.58 213.08 -502.24 219 -397.62 217.76 -240.59 209.31 -77.36 192.3 48.24 166.11 102.17 130.24 74.75 84.35 -23.09 30.05 -159.23 -32.85 -293.87 -103.05 -392.36 -176.71 -426.41 -253.1 -388.51 -329.18 -287.11 -400.08 -146.56 -464.1 1.41 -517.65 167.65 -568.92 145.09 -560.08 -7.23 -499.78 -120.53 -443.12 -211.56 -377.95 -263.79 -309.54 -269.45 -245.81 -226.62 -190.81 -143.77 -150.57 -31.65 -131 91.52 -134.37 209.29 -162.65 310.43 -214.92 381.93 -288.48 419.29 -378.39 421.88 -476.46 393.35 -575.46 341.59 -666.31 272.13 -739.63 197.49 -788.98 126.79 -808.88 63.73 -797.59 17.71 -755.93 -8.4 -688.22 -14.97 -603.79 -0.68 -511.31 31.58 -422.36 80.09 -349.91 140.11 -302.51 207.15 -287.78 280.97 -309.45 354.97 -365.93 426.15 -451.69 496.43 -556.26 560.3 -667.38 616.97 -770.8 669.45 -852.44 714.36 -901.67 752.42 -911.22 786.32 -880.07 814.69 -811.93 838.76 -716.24 860.1 -608.15 878.79 -502.53 895.93 -415.63 911.8 -361.99 927.37 -349.55 943.34 -381.28 959 -453.12 975.7 -554.42 993.7 -669.77 1011.7 -780.89 1030.79 -869.35 1050.69 -921.76 1070.26 -931.01 1090.02 -895.47 1109.21 -821.21 1127.14 -719.43 1143.26 -605.52 1156.45 -496.14 1169.84 -377.54 1163.11 -382 1138.33 -496.76 1114.98 -597.54 1084.12 -698.06 1046.5 -784.45 1007.98 -846.31 966.3 -874.37 924.42 -865.46 889.33 -820.91 860.89 -746.12 843.56 -650.4 842.48 -544.05 858.98 -439.74 895.94 -348.56 952.44 -279.04 1028.44 -238.08 1121.05 -228.14 1221.31 -249.09 1325.08 -296.49 1423.21 -363.42 1503.66 -443.3 1560.42 -525.42 1585.59 -600.85 1576 -663.47 1531.78 -705.46 1457.42 -723.19 1366.43 -715.68 1269.52 -683.04 1183.15 -628.54 1126.04 -555.84 1108.42 -471.3 1138.75 -381.34 1215.67 -290.69 1330.84 -206.51 1467.73 -133.59 1601.01 -74.59 1709.36 -32.98 1771.15 -9.42 1773.73 -3.92 1716.57 -14.94 1611.12 -39.78 1484.4 -77.03 1364.49 -121.85 1283.09 -170.48 1265.18 -221.74 1318.59 -270.24 1435.81 -313.23 1589.19 -350.6 1743.43 -378.54 1858.72 -396.21 1903.59 -404.34 1866.45 -401.6 1756.91 -388.76 1609.74 -366.66 1468.07 -336.21 1378.07 -298.99 1372.34 -255.25 1456.09 -207.33 1607.82 -156.83 1780.39 -103.09 1920.81 -49.05 1982.49 4.14 1944.97 57.97 1820.82 109.53 1653.16 158.26 1504.63 206.13 1429.03 250.62 1457.98 291.68 1584.03 331.35 1763.57 367.65 1931.03 400.82 2022.69 432.73 2003.74 461.9 1880.2 488.67 1702.06 514.58 1539.24 538.57 1459.1 560.93 1496.78 582.88 1638.52 603.59 1827.77 623.28 1985.61 642.85 2045.98 661.61 1981.55 679.61Q1981.48 679.62 1981.48 679.62" opacity="0.26"></path><path d="M1906.98 292.53C1580.74 325.96 1385.8 348.85 1569.65 362.11 1888.35 376.1 1928.43 382.14 1644.43 382.85 1379.13 387.92 1441.18 392.97 1735.73 403.44 1917.09 426.36 1773.24 463.38 1462.69 520.36 1299.14 596.26 1432.47 694.61 1701.75 813.08 1839.21 936.83 1706.23 1061.89 1424.28 1172.2 1218.07 1248.44 1239.99 1281.25 1438.63 1260.43 1651.74 1193.33 1708.34 1088.98 1575.27 971.79 1330.4 880.87 1118.24 840.13 1036.04 873.55 1102.55 982.5 1258.44 1147.44 1411.71 1327.76 1501.08 1468.33 1482.97 1528.51 1375.51 1484.97 1207.75 1357.27 1033.84 1190.59 890.57 1053.95 787.26 1012.75 737.44 1089.95 727.59 1264.41 750.53 1465.35 785.58 1609.28 817.36 1629.21 854.19 1517.08 875.22 1323.62 877.87 1144.3 879.49 1074.8 863.41 1152.05 829.98 1341.66 796.55 1545.41 746.56 1653.77 679.82 1614.29 612.06 1449.15 526.86 1240.66 426.99 1088.08 332.16 1058.3 235.18 1157.88 151.59 1332.2 100.78 1503.35 91.23 1590.08 136.61 1557.63 221.94 1419.02 339.35 1228.07 452.23 1054.29 504.79 951.66 469.61 948.59 328.72 1032.2 123.92 1170.31 -81.71 1307.12 -196.05 1397.92 -161.69 1419.59 4.55 1362.65 205.61 1245.23 294.87 1090.53 196.54 934.67 -56.04 805.06 -323.72 695.9 115.53 757.58 -1.45 856.65 -300.55 924.45 -461.13 974.88 -322.07 1003.74 -36.03 1015.89 86.05 1006.24 -114.18 979.73 -427.59 940.46 -505.61 892.22 -253.2 840.62 17.89 783.98 -32.03 729.67 -357.34 680.83 -547.8 631 -356.25 588.77 -30.01 555.34 -10.17 521.91 -317.59 498.07 -541.14 482.78 -393.44 466.5 -62.6 456.64 43.73 450.24 -192.05 438.8 -470.94 425.11 -460.7 403.74 -170.56 369.59 80.18 319.87 38.48 249.8 -232.92 163.01 -434.09 56.09 -361.64 -66.59 -79.79 -188.74 156.38 -305.67 160.13 -401.05 -48.85 -458.09 -272.11 -468.88 -325.15 -427.06 -166.02 -345.29 94.15 -235.33 289.54 -124.45 320.84 -50.83 193.58 -35.6 9.23 -96.73 -131.3 -226.99 -145.09 -401.02 -35.59 -573.94 156.21 -692.38 353.05 -721.72 497.86 -648.93 568.79 -504.98 560.74 -341.27 502.02 -227.15 409.28 -219.18 322.17 -327.65 259.76 -517.66 217.07 -710.85 208.28 -826.42 225.08 -809.58 258.4 -669.92 302.92 -471.27 349.03 -312.72 399.07 -279.82 442.51 -391.53 475.94 -595.27 509.37 -784.9 532.01 -858.8 547.08 -782.72 566.09 -596.81 585.73 -393.49 615.45 -268.44 661.69 -275.44 732.39 -403.39 835.73 -585.45 958.78 -741.06 1105.27 -796.52 1255.94 -730.84 1372.62 -569.71 1437.18 -375.79 1421.17 -218.26 1331.27 -144.87 1187.73 -172.64 1047.43 -278.39 989.42 -423.9 1052.93 -551.62 1241.29 -621.11 1473.47 -615.07 1646.66 -532.61 1659.22 -397.89 1507.67 -236.89 1289.22 -86.62 1169.52 28.3 1261.99 96.97 1522.46 113.93 1766.28 89.23 1797.4 30.45 1593.64 -41.3 1341.6 -110.16 1413.09 -194.68 1775.01 -221.46 1389.24 -172.56 1397.79 -122.38 1692.61 -65.51 1941.36 -7.52 1847.99 54.8 1527.01 112.92 1385.84 164.05 1615.92 215.91 1926.76 259.09 1907.05 292.52Q1906.98 292.53 1906.98 292.53" opacity="0.48"></path><path d="M1832.48 138.56C1532.82 169.42 1316.78 204.59 1423.82 244.66 1727.94 285.86 1884.77 334.05 1727.67 390.82 1422.22 450.91 1282.08 521.6 1432.11 603.27 1712.46 687.27 1838.04 779.47 1692.61 875.54 1404.6 963.59 1223.89 1043.76 1283.91 1106.58 1518.26 1143.38 1718.83 1149.75 1727.52 1120.71 1536.17 1063.81 1278.73 981.25 1118.06 886.32 1136.14 804.7 1299.58 749.26 1490.45 740.15 1602.48 789.02 1568.33 894.15 1413.41 1042.55 1199.86 1202.11 1018.1 1342.34 921.71 1427.25 924.71 1434.15 1006.75 1360.41 1121.74 1225.93 1240.64 1079.16 1318.51 965.85 1343.34 931.86 1319 997.94 1251.97 1148.09 1161.94 1335.46 1052.83 1492.24 946.86 1561.75 853.51 1514.07 761.98 1370.2 687.86 1186.08 630.11 1040.82 574.57 1002.37 531.97 1089.1 501.11 1267.16 470.25 1457.36 451.86 1571.44 447.3 1561.78 444.94 1435.07 459.83 1245.79 493.16 1072.51 528.32 981.33 577.12 1003.68 630.24 1122.23 664.28 1290.07 676.51 1436.98 647.37 1509.14 569.06 1483.47 439.04 1367.17 269.47 1199.86 103.81 1028.3 -27.41 902.31 -77.96 849.37 -29.14 876.08 106.68 965.02 276.07 1083.61 386.85 1203.67 378.62 1288.18 226.15 1319.36 -5.16 1293.5 -207.11 1214.83 -261.64 1100.89 -137.4 965.58 85.66 832.68 244.89 717.66 204.07 625.62 -26.4 565.75 -288.27 535.53 -375.82 532.28 -220.26 548.27 45.13 574.49 167.93 611.61 22.26 646.84 -275.49 675.14 -380.23 711.56 38.23 725.06 -354.94 705.39 -468.08 688.31 -255.17 664.06 44.48 633.21 77.96 602.35 -188.4 565.61 -443.33 522.58 -402.52 478.57 -111.27 426.51 115.15 365.28 46.66 301.51 -231.57 227.41 -425.27 143.47 -341.57 59.18 -58.99 -30.85 160.96 -121.45 133.72 -201.15 -97.46 -269.29 -315.6 -316.72 -337.07 -337.18 -139.5 -326.51 123.84 -282.03 275.13 -214.58 223.07 -127.62 31.77 -36.46 -166.25 33.32 -233.37 69.64 -135.97 55.06 76.4 -16.53 293.59 -139.56 424.48 -296.05 431.69 -451.08 332.49 -574.39 189.3 -633.25 53.62 -612.46 -15.05 -516.39 -3.28 -372.36 81.74 -232.57 213.81 -141.4 358.95 -138.33 504.8 -233.09 621.9 -400.08 705.32 -585.34 761.91 -721.32 791.47 -758.43 805.64 -679.18 806.49 -517.83 806.44 -337.62 813.06 -216.99 817.2 -213.41 833.57 -330.58 864.42 -520.77 895.28 -698.85 939.9 -782.48 995.86 -737.97 1049.35 -586.63 1108.62 -393.42 1165.97 -237.62 1210.01 -178.01 1237.62 -232.75 1237.03 -372.11 1209.61 -542.07 1147.33 -672.14 1054.97 -715.62 963.3 -659.03 883.37 -520.59 848.98 -346.29 887.85 -184.28 1005.7 -80.62 1188.94 -55.37 1379.69 -108.13 1524.85 -214 1561.82 -337.11 1475.12 -449.08 1300.31 -515.71 1128.36 -524.15 1071.37 -474.6 1176.97 -376.8 1411.42 -251.03 1639.18 -111.95 1725.64 16.54 1606.52 121 1375.31 197.61 1207.61 240.44 1256.56 254.32 1502.19 242.17 1758.55 214.16 1808.47 179.59 1611.17 137 1348.66 99.61 1282.32 71.59 1639.87 39.14 1511.28 37.43 1335.39 61.84 1596.37 81.88 1865.91 107.7 1832.55 138.55Q1832.48 138.56 1832.48 138.56" opacity="0.28"></path><path d="M1757.98 551.72C1485.56 580.01 1258 615.83 1291.93 658.27 1549.37 700.02 1778.77 746.95 1768.5 796.83 1529.26 843.31 1273.11 888.87 1212.9 929.53 1513.15 971.58 1526.65 964.32 1184.64 903.56 1139.77 847.87 1281.26 781.88 1495.79 714.35 1645.36 662.1 1630.68 629.7 1466.73 629.28 1236.66 668.61 1058.28 748.48 1001.68 865 1075.94 1000.67 1228.6 1140.23 1381.54 1259.35 1479.17 1333.33 1478.89 1348.63 1390.04 1298.75 1237.09 1198.43 1068.16 1068.31 921.98 943.33 814.32 864.52 762.52 855.14 757.73 926.84 792.59 1064.6 846.59 1234.27 902.35 1387.13 962.65 1475.29 1007.21 1470.93 1033.16 1372.64 1052.72 1216.43 1055.36 1053.57 1044.76 944.44 1031.48 933.68 1009.75 1026.82 981.46 1192.66 953.18 1368.76 919 1485.5 877.18 1501.49 832.68 1413.51 775.76 1253.73 702.85 1079.38 623.54 947.16 526.58 898.88 414.96 943.48 307.88 1063.78 203.65 1214.48 119.76 1346.17 75.53 1422.56 79.53 1418.26 140.74 1337.3 240.47 1199.89 364.32 1041.77 473.66 899.32 518.92 798.33 477.09 757.38 338.99 775.59 145.57 844.86 -45.92 941.94 -157.26 1042.83 -137.73 1133.12 5.34 1190.78 202.01 1208.72 332.55 1187.53 315.74 1129.77 136.72 1046.1 -107.26 942.49 -276.17 833.48 -256.52 728.88 -65.18 629.09 162.62 544.55 247.09 476.49 107.62 421.24 -161.57 380.89 -352.4 351.75 -186.83 324.6 43.29 290.56 -338.59 269.39 -378.12 254.57 -153.43 233.45 118.98 205.16 163.73 176.88 -58.95 142.1 -324.56 101.82 -380.05 62.37 -172.67 19.14 102.18 -25.44 202.58 -66.22 49.06 -104.27 -210.09 -135.62 -353.34 -157.81 -257.08 -167.71 -3.08 -161.48 219.36 -142.45 250.74 -105.71 89.85 -52.38 -140.18 5.76 -268.02 69.68 -212.11 129.71 -5.87 169.78 226.91 185.45 363.54 166.18 347.46 107.77 205.61 11.28 27.63 -116.07 -103.27 -254.03 -119.92 -386.43 -23.55 -489.11 151.85 -540.74 340.11 -531.29 486.6 -459.77 565.23 -346.78 564.86 -216.07 506.88 -103.88 408.91 -48.14 309.11 -66.88 230.69 -163.98 175.77 -316.4 159.48 -485.52 175.47 -621.79 216.78 -682.39 275.06 -647.63 338.88 -526.35 411.14 -362.92 477.57 -211.46 533.21 -129.04 589.87 -150.59 633.02 -270.17 661.32 -446.27 689.6 -612.13 702.36 -702.43 700.81 -686.11 700.26 -571.41 688.13 -400.23 669.22 -233.08 658.74 -123.86 652.86 -105.97 662.86 -178.15 698.18 -315.04 764.69 -466.3 868.63 -583.33 996.06 -634.31 1143.66 -601.89 1288.08 -497.85 1392.53 -347.65 1438.01 -190.11 1403.01 -60.33 1300.14 19 1153.98 35.2 1019.04 -5.37 963.11 -91.08 1018.56 -195.33 1186.52 -293.92 1401.58 -373.37 1578.77 -414.4 1628.28 -413.26 1525.09 -372.37 1323.8 -297.87 1146.99 -202.02 1120.49 -90.89 1275.71 20.18 1530.97 122.32 1717.13 215.64 1708.86 291.21 1507.17 349.18 1273.89 392.99 1195.99 422.52 1355.15 442.15 1713.81 456.22 1344.46 473.66 1305.91 490.68 1577.08 503.34 1802.7 523.43 1758.05 551.71Q1757.98 551.72 1757.98 551.72" opacity="0.57"></path><path d="M1683.48 635.74C1323.8 671.62 1492.3 713.6 1732.57 715.8 1627.86 712.58 1381.85 700.13 1172.35 678.21 1138.26 654.81 1292.37 623.5 1517.13 586.74 1664.91 554.49 1636.34 523.78 1454.4 500.59 1221.16 493.84 1066.58 504.77 1059.46 539.08 1191.02 597.77 1378.64 681.55 1523.44 787.39 1562.15 902.99 1475.16 1021.84 1304.88 1129.6 1109.29 1209.24 959.69 1251.5 892.95 1246.83 916.12 1197.33 1007.36 1108.32 1126.33 995.47 1285.43 844.62 1295.04 834.81 1166.26 1013.36 1051.68 1165.9 939.1 1303.21 838.97 1390.22 745.56 1403.99 671.43 1339.55 614.47 1212.5 565.82 1062.04 528.63 929.07 498.3 855.81 470.52 868.66 444.71 965.16 419 1118.16 393.28 1279.69 368.27 1396.12 345.95 1433.02 326.2 1381.81 314.03 1258.12 314.18 1099.86 322.64 950.09 349.13 849.77 395.89 821.56 449.36 869.54 516.27 975.16 586.28 1106.58 636.37 1233.16 661.17 1319.4 642.47 1346.64 572.83 1310.88 452.15 1219.44 293.26 1092.95 134.66 952.11 5.14 823.92 -54.82 726.97 -24.88 670.88 89.41 660.32 251.29 688.95 387.87 750.55 442.76 828.34 373.69 907.86 198.52 983.55 -17.72 1040.07 -176.06 1072.63 -195.72 1082.68 -66.06 1067.43 144.24 1031.53 303.24 977.76 310.85 912.36 144.23 841.49 -99.38 764 -270.23 688.52 -250.65 618.27 -55.67 548.11 178.06 485.62 272.84 431.3 147.73 378.42 -109.98 333.09 -303.71 294.83 -278.47 257.14 -51.29 225.49 193.48 199.77 247.04 174.06 68.75 154.88 -188.39 142.48 -318.88 130.65 -217.96 126.62 30.76 131 242.08 136.82 263.37 151.66 93.14 175.17 -142.75 198.76 -271.76 228.57 -210.05 261.5 2.56 287.8 231.88 309.75 346.68 321.3 292.57 314.99 115.27 289.25 -74.6 239.57 -178.05 167.39 -137.48 72.6 21.03 -39.87 230.94 -156.18 401.45 -269.29 476.16 -364.6 440.77 -426.95 323.94 -448.5 180.92 -422.79 55.2 -356.21 -5.61 -256.66 8.94 -142.6 92.27 -42.88 220.45 23.64 362.46 36.48 503.29 -13.67 615.25 -120.86 691.48 -266.28 741.2 -477.74 699.52 -543.74 660.77 -359.91 625.18 -153.49 618.22 -150.74 649.71 -371.77 675.43 -524.78 714.68 -618.7 767.04 -626.5 819.58 -548.17 884.96 -407.65 961.03 -247.26 1033.74 -110.28 1110.44 -33.53 1182.73 -32.77 1237.05 -105.26 1270.49 -225.82 1271.47 -359.51 1239.83 -475.65 1171.34 -541.85 1072.74 -544.64 972.95 -484.85 885.75 -375.43 842.03 -240.06 867.08 -100.43 966.14 17.2 1128.65 97.07 1308.47 132.11 1460.63 121.95 1529.75 76.02 1488.78 1.97 1350.39 -81.57 1170.84 -160.37 1042.66 -229.42 1030.69 -274.92 1160.88 -293.98 1377.52 -288.66 1579.76 -258.6 1656.85 -209.63 1565.03 -144.21 1356.68 -70.05 1162.88 6.76 1119.98 88.09 1265.69 165.07 1516.09 235.12 1700.87 303.7 1691.92 363.79 1490.56 415.51 1251.74 465.21 1158.32 507.76 1293.83 543.99 1556.06 579.52 1737.01 610.01 1683.55 635.73Q1683.48 635.74 1683.48 635.74" opacity="0.78"></path><path d="M1608.98 208.35C1280.31 240.09 1307.92 277.01 1608.73 286.51 1649.15 294.39 1515.29 302.15 1290.98 312.36 1101.37 328.61 1049.81 351.3 1151.67 383.45 1346.85 425.42 1523.44 479.94 1592.18 548.2 1522.36 625.45 1347.21 713.78 1146.61 809.56 996.65 902.87 953.44 991.99 1017.92 1068.48 1159.09 1122.83 1313.14 1150.8 1424.08 1146.59 1461.57 1111.71 1412.44 1047.01 1297.56 959.57 1142.55 866.48 989.16 777.68 866.61 709.95 787.02 680.36 760.46 695.45 777.56 758.85 831.19 862.79 901.1 993.5 971.24 1129.21 1041.46 1243.16 1094 1314.69 1126.36 1327.12 1146.14 1278.24 1147.61 1176.32 1135.8 1043.23 1116.08 913.29 1090.11 815.13 1062.47 775.32 1032.79 807.19 1005.5 904.09 982.36 1043.66 959.21 1190.17 940.77 1303.49 925.36 1356.2 907.92 1337.87 889.47 1252.94 865.54 1123.65 833.71 978.97 789.36 852.02 727.59 768.49 653.24 743.08 559.59 777.3 449.27 858.9 339.01 971.53 229.99 1087.52 138.36 1183.65 83.26 1245.69 72.93 1260.01 116.85 1226.64 203.72 1151.3 322.66 1046.62 444.56 928.77 526.33 809.39 543.67 705.2 475.85 625.43 334.58 573.64 151.64 552.7 -16.85 558.69 -108.66 589.19 -91.22 634.93 34.63 687.73 211.13 746.73 363.85 800.57 413.03 844.83 323.65 882.52 128.19 906.5 -83.93 917.22 -202.76 918.86 -166.27 909.34 10.27 891.38 221.52 867.27 344.32 838.46 294.98 807.56 96.66 773.99 -132.98 741.09 -247.21 710.55 -170.03 679.39 51 651.87 267.98 628.73 327.8 605.58 192.84 587.36 -39.71 573.44 -217.27 558.89 -221.81 547.37 -55.6 537.3 178.46 524.55 338.02 510.49 336.8 492.61 182.58 468.59 -26.81 437.01 -171.47 395.26 -176.71 344.43 -39.01 281.35 169.03 205.66 354.46 123.4 434.89 32.67 389.13 -62 244.86 -150.46 74.84 -230.66 -49.13 -294.28 -84.64 -333.4 -17.22 -344.25 124.06 -322.8 300.02 -273.37 456.04 -198.08 557.28 -106.03 590.13 -15.5 556.16 63.4 477.62 114.65 371.36 123.94 270.71 87.2 194.94 4.53 147.53 -112.23 139.44 -247.07 164.59 -376.68 217.68 -475.25 288.45 -524.55 365.79 -512.22 451.63 -441.77 531.78 -325.89 601.84 -190.14 671.2 -69.77 728.38 8.36 773.49 22.13 817.66 -35.12 851.2 -150.76 874.35 -297.27 903.6 -484.14 904.22 -461.9 872.13 -270.56 845.72 -128.53 808.44 -15.54 764.6 46.4 729.24 47.05 699.57 -9.39 686.58 -106.37 701.52 -225.11 748.71 -336.98 834.1 -420.27 947.87 -463.04 1085.4 -455.71 1227.34 -402.03 1341.57 -310.2 1410.01 -195.63 1410.3 -75.21 1342.2 39.55 1217.97 133.14 1072.34 198.36 961.37 232.91 922.8 236.72 985.62 215.48 1136.9 172.1 1332.69 117.43 1501.08 59.8 1570.97 -0.31 1513 -51.74 1348.24 -90.99 1160.83 -121.25 1041.95 -136.66 1064.12 -138.52 1225.71 -130.56 1450.17 -112.15 1617.48 -86.41 1631.82 -54.63 1483.35 -19.52 1258.22 16.25 1100.9 54.47 1112.19 90.73 1294.27 123.42 1531.42 156.65 1668.78 185.2 1609.05 208.34Q1608.98 208.35 1608.98 208.35" opacity="0.37"></path><path d="M1534.48 196.7C1345.2 217.27 1135.88 242.51 1018.15 272.43 1050.69 302.74 1211.3 338.44 1412.33 379.85 1555.31 422.36 1567.63 471.25 1448 526.48 1251.35 582.56 1067.46 644.23 971.66 710.07 997.11 773.73 1124.72 837.93 1294.18 899.25 1441.25 951.65 1505.3 994.82 1467.75 1024.31 1342.25 1037.39 1172.38 1031.77 1010.48 1005.51 895.07 962.86 854.82 903.14 887.93 830.91 980.73 757.84 1099.7 687.48 1212.44 629.71 1300.84 596.34 1341.93 591.5 1333.67 620.6 1280.47 683.32 1193.91 775.6 1090.49 888.55 976.16 1006.44 869.67 1115.93 778.91 1200.36 700.86 1245.89 643.56 1245.04 604.04 1195.91 577.61 1108.34 562.48 994.73 553.22 875.48 549.95 776.07 546.33 713.77 538.88 703.18 532.75 749.09 520.03 843.57 499.46 969.16 478.89 1100.26 450.94 1207.83 417 1271.12 384.38 1280.16 348.52 1232.85 312.98 1140.07 283.45 1018.71 260.46 891.45 249.57 779.99 251.76 700.61 272.53 665 314.93 674.96 370.04 727.39 441.76 809.55 522.31 905.95 591.95 1004.87 645.71 1087.99 667.21 1144.53 643.76 1170.32 572.05 1160.69 454.22 1119.07 312.03 1049.97 164.82 962.21 45.05 865.5 -15 764.87 -0.43 671.2 90.67 590.26 228.28 522.99 375.24 474.09 479.32 442.83 495.45 427.95 411.46 427.12 246.04 436.43 58.24 455.99 -86.13 479.6 -126.66 503.73 -45.94 531.44 124.55 555.61 309.59 574.48 417.61 593.4 395.46 605.72 244.55 611.12 35.57 615.81 -131.07 613.85 -167.68 605.43 -54.02 596.71 153.2 582.06 342.48 561.49 405.96 540.92 311.53 514.92 115.57 483.56 -79.06 451.91 -167.7 414.39 -108.91 370.91 66.56 326.71 271.6 276.29 411.12 220.04 427.01 163.85 319.05 103.14 144.12 39.77 -23.36 -20 -108.06 -78.38 -79.75 -131.73 49.54 -174.81 229.83 -206.79 397.79 -223.62 505.12 -224.07 521.71 -205.8 455.12 -167.98 329.39 -116.48 191.29 -51.06 81.33 22.6 22.21 92.35 30.86 154.43 99.02 199.25 213.52 216.59 347.6 203.33 477.25 156.13 591.44 78.17 672.01 -24.86 716.89 -142.13 728.6 -256.88 712.69 -355.82 679.89 -423.34 631.53 -448.4 582.07 -426.2 538.55 -358.44 494.82 -258.6 463.03 -141.16 443.88 -27.74 427.9 57.1 423.27 98.38 428.37 85.29 434.72 17.96 448.55 -91.67 469.12 -222.77 489.69 -348.37 516.52 -440.78 550.23 -482.65 585.21 -468.02 629.32 -399.67 684.09 -292.33 742.03 -165.15 811.93 -41.7 892.98 57.47 973.82 118.23 1059.82 132.49 1143.84 102.05 1212.3 32.7 1262.99 -60.01 1285.07 -159.56 1273.99 -254.16 1226.24 -326.51 1143.76 -367.81 1045.83 -375.5 942.36 -347.75 857.29 -290.1 818.53 -208.03 838.11 -112 924.17 -11.96 1061.08 87.22 1224.86 175.2 1374.89 247.28 1465.8 302.98 1472.15 339.22 1386.27 357.85 1239.74 360.07 1079.38 349.69 968.4 331.07 958.4 303.53 1059.84 274.09 1242.39 246.08 1432.41 215.89 1553.8 190.76 1549.56 172.01 1421.68 154.11 1226.47 143.33 1058.91 139.62 1008 137 1102.65 140.79 1301.33 150.55 1501.37 160.7 1597.95 176.12 1534.55 196.69Q1534.48 196.7 1534.48 196.7" opacity="0.12"></path><path d="M1459.98 626.06C1298.06 644.06 1109.23 665.55 972.05 690.03 939.76 714.14 1021.92 740.49 1180.52 768.04 1354.94 794.02 1474.89 819.59 1498.27 843.14 1419.05 863.01 1266.36 878.48 1093.65 887.6 952.69 890.61 886.71 884.99 907.82 869.36 1005.41 846.73 1143.25 813.87 1278.54 771.4 1378.95 725.47 1415.11 674.03 1382.68 620.64 1290.14 573.41 1160.64 532.63 1022.3 503.65 894.76 492.78 802.16 501.36 753.03 532.38 748.22 585.36 781.99 659.02 841.32 749.42 919.88 847.65 999.17 947.58 1068.55 1039.25 1147.85 1134.67 1180.6 1121.64 1147.14 1010.84 1111.04 912.96 1070.41 810.92 1029.65 719.67 985.36 655.31 945.16 626.36 911.33 639.32 876.85 694.17 850.16 783.54 832.16 894.66 814.16 1010.01 805.28 1109.43 804.69 1178.08 803.46 1207.88 809.11 1193.71 819.45 1139.28 826.26 1052.73 833.55 946.85 836.98 836.44 830.5 734.06 813.11 652.91 779.71 601 730.17 582.33 660.76 596.63 571.39 638.94 472.46 704.72 364.47 782.65 258.17 862.82 171.1 940.13 110.53 1003.42 89.59 1047.55 112.96 1071.74 180.84 1072.52 284.79 1051.77 399.53 1011.69 506.57 956.17 577.85 890.33 589.02 815.68 532.82 739.05 413.67 664.48 259.64 591.08 104.35 524.65 -9.28 466.47 -46.45 414.08 4.85 370.57 132.61 335.12 292.13 305.41 433.1 281.96 502.16 263.13 468.62 248.01 340.07 235.25 158.71 223.35 -6.83 213.13 -94.29 202.11 -65.56 189.31 68.06 176.92 255.06 161.92 416.98 143.92 481.48 125.92 423.24 105.34 271.08 82.67 86.82 60.41 -51.5 36.88 -91.12 13.16 -19.38 -8.89 135.28 -29.48 314.05 -47.02 456.95 -60.84 515.81 -69.37 478.28 -70.86 360.32 -66.61 207.25 -53.53 69.98 -30.7 -13.98 -2.08 -17.94 35.65 54.59 81.3 184.95 128.13 337.47 177.97 476.5 226.86 578.05 266.95 622.36 297.76 609.62 314.26 546.65 311.42 453.88 288.18 353.22 242.74 256.54 177.37 185.38 94.04 147.13 -2 141.36 -100.92 168.72 -196.3 221.06 -278.14 294.59 -336.51 377.63 -365.5 461.6 -360.04 548.32 -321.32 626.38 -251.91 693.31 -159.69 755.4 -59.44 805.81 37.83 846.07 117.44 882.37 164.94 911.51 173.84 935.55 140.5 958.39 68.3 978.42 -32.92 996.42 -148.27 1014.43 -259.39 1029.97 -346.96 1042.2 -398.27 1053.22 -407.69 1058.63 -373.46 1056.29 -302.16 1049.98 -203.97 1032.93 -93.33 1003.5 14.7 969.23 108.04 923.15 175.02 867.62 209.72 814.86 209.91 762.22 178.45 718.25 122.15 695.45 46.54 696.77 -35.94 730.26 -115.42 796.24 -187.08 894.19 -240.71 1016.61 -272.44 1143.03 -282.2 1260.53 -268.32 1347.11 -233.86 1383.47 -181.28 1361.66 -115.79 1281.38 -42.8 1163.61 36.33 1031.14 114.57 919.5 188.24 865.68 258.46 887.06 320.01 987.05 372.21 1140.37 417.39 1308.11 453.43 1439.29 481.61 1490.05 503.69 1442.94 520.19 1310.23 532.98 1068.57 545.98 1049 568.33 1308.61 583.38 1464.35 593.96 1524.48 608.05 1460.05 626.05Q1459.98 626.06 1459.98 626.06" opacity="0.64"></path><path d="M1385.48 565.01C977.41 602.37 1336.98 582.06 1318.07 521.7 931.33 454.07 1117.33 399.83 1314.24 500.05 1253.19 627.07 1078.33 786.32 883.43 944.41 715.16 1055.1 625.24 1088.84 600.3 1024.75 624.58 887.68 664.72 717.98 692.25 584.97 725.07 554.09 728.56 642.1 697.7 820.16 666.84 1010.36 603.09 1122.17 512.08 1113.28 426.34 993.2 330.07 811.87 252.31 639.14 223.77 525.63 262.87 501.82 383.58 556.9 530.92 670.29 661.48 794.13 682.08 892.5 548.98 955.84 303.89 965.06 85.38 929.65 52.19 858.96 235.88 769.29 494.32 677.96 576.46 580.1 387.2 495.15 85.36 427.86 -18.74 361.67 191.82 312.72 491.48 281.86 394.51 245.34 171.84 271.16 553.01 329.95 570.27 367.8 369.62 406.66 146.74 429.79 64.57 417.66 183.1 364.15 404.63 260.37 620.96 121.56 727.49 -38.85 719.52 -184.39 622.72 -271.61 504.2 -275.5 412.72 -184.62 342.73 -34.52 321.4 129.24 332.94 237.43 358.42 234.44 392.33 116.41 423.19 -73.77 454.05 -251.85 480.4 -333.64 513.11 -290.88 559.76 -145.98 637.21 41.28 760.67 200.99 905.62 287.71 1074.96 281.65 1219.35 203.1 1274.9 77.14 1212.71 -45.51 1036.85 -132.09 855.75 -175.77 773.77 -163.68 888.02 -109.61 1143.02 -22.79 1371.37 77.17 1376.8 173.71 1152.88 273.54 901.19 357.69 890.23 423.28 1151.74 486.89 1418.91 534.14 1385.55 565Q1385.48 565.01 1385.48 565.01" opacity="0.36"></path><path d="M1310.98 145.99C1066.2 171.7 836.91 188.9 798.42 200.53 969.12 215.5 1206.2 231.52 1338.16 255.63 1287.47 292.39 1090.35 347.51 870.45 426.27 727.5 521.03 720.52 635.86 818.65 760.2 975.52 871.11 1110.22 958.65 1182.36 1000.87 1191.12 987.36 1138.04 914.58 1054.48 793.33 946.97 660.05 847.39 542.05 769.58 478.15 692.33 495.53 640.22 592.66 614.5 745.66 588.79 907.19 590.69 1021.32 619.44 1056.92 648.75 1009.76 701.55 894.35 764.49 746.58 803.49 598.01 814.22 484.03 765.82 421.4 654.05 413.62 482.43 452.16 291.86 517.82 160.02 603.65 136.51 683.61 252.68 745.39 445.81 795.12 619.86 819.48 651.71 822.28 500.9 812.96 249.18 790.9 68.56 763.17 97.12 731.94 321.2 701.79 565.98 676.07 619.54 650.36 445.63 630.29 197.94 613.02 61.91 592.26 139.91 567.54 361.98 532.29 587.77 484.93 680.67 418.22 615.19 328.86 439.99 227.45 265.93 110.56 172.99 -8.96 183.6 -108.32 288.41 -177.36 435.28 -196.36 598.39 -160.51 729.55 -69.61 817.66 60.1 875.41 189.02 902.53 289.81 917.18 327.06 922.36 281.56 933.86 162.24 959.57 0.72 985.28 -152.28 1023.99 -244.23 1067.32 -251.71 1101.17 -177.91 1120.84 -45.28 1107.67 106.85 1064.14 246.96 975.34 342.81 851.87 383.1 744.62 367.66 676.7 310.62 699.77 233.41 826.39 142.77 1030.92 64.86 1232.92 9.74 1325.21 -29.38 1255.41 -42.16 1048.49 -34.35 845.26 -13.9 781.84 16.86 927.73 50.38 1185.33 87.25 1364.51 120.26 1311.05 145.98Q1310.98 145.99 1310.98 145.99" opacity="0.07"></path><path d="M1236.48 277.98C1047.2 298.56 838.99 331.06 719.28 374.73 739.82 419.06 879.71 475.35 1061.03 542.04 1210.63 608 1260.74 680.88 1204.66 754.7 1065.99 817.91 897.72 870.32 750.15 902.15 644.47 908.01 601.47 882.93 609.23 824.51 658.66 744.29 723.76 644.94 783.86 541.84 847.31 459.3 889.99 407.91 909.73 402.97 926.48 450.91 923.91 545.57 903.34 671.16 882.77 802.27 845.16 907.71 789.61 968.36 731.07 978.43 650.97 935.7 551.87 852.65 456.11 742.03 357.13 623.81 275.99 515.12 236.53 422.64 250 357.73 328.71 320.87 449.32 309.84 593.2 319.39 710.45 340.83 745.11 374.99 676.55 409.2 511.86 437.15 315.47 467.32 163.86 486.53 135.39 492.82 247.15 498.86 451.2 491.96 640.48 471.39 703.96 450.81 612.51 417.54 426.06 372.71 236.14 327.62 141.76 270.98 177.01 205.16 321.28 141.55 509.43 73.47 669.46 7.59 760.62 -45.54 761.65 -84.63 694.38 -100.56 579.71 -90.66 463.7 -50.15 374.58 20.9 311.84 108.18 291.7 207.94 303.66 303.49 338.18 371.45 384.66 402.47 429.57 384.47 479.25 315.88 516.93 206.27 537.51 75.16 559.34 -95.67 539.07 -136.49 535.65 -7.32 559.34 110.85 613.34 228.65 707.77 330.29 828.58 410.13 974.13 459.6 1115.77 480.7 1210.04 475.84 1233.43 452.97 1163.71 421.46 1025.12 379.35 855.42 340.35 726.2 310.04 705.99 279 812.04 260.14 1009.87 254.6 1204.28 249.73 1299.95 257.4 1236.55 277.97Q1236.48 277.98 1236.48 277.98" opacity="0.96"></path><path d="M1161.98 674.66C753.21 725.76 1051.26 780.87 1152.12 688.28 1007.4 582.04 815.38 448.98 670.74 343.57 548.1 328.09 481.43 418.6 450.57 596.66 419.71 786.86 427.59 894.07 496.75 887.32 587.91 784.1 731.77 627.95 836.05 477.79 788.8 343.57 567.95 254.64 293.01 202.55 209.59 168.33 415.33 142.69 714.98 111.83 623.53 64.39 348.55 47.55 683.45 161.72 846.61 271.43 880.35 394.84 853.51 475.44 786.99 459.58 753.47 339.86 784.33 149.66 815.16 -28.39 907.47 -106.4 1027.48 -68.3 1107.81 59.73 1122.26 225.51 999.57 372.2 807.02 493.02 635.93 565.61 675.42 604.71 933.03 625.48 1195.41 643.79 1162.05 674.65Q1161.98 674.66 1161.98 674.66" opacity="0.75"></path><path d="M1087.48 475.5C898.2 496.07 692.24 489.25 570.73 458.39 565.89 427.51 657.36 375.84 777.76 315.41 907.58 271.9 990.27 243.93 1022.29 250.54 1034.7 301.55 1022.46 396.57 1001.89 522.16 981.32 653.27 954.35 754.44 906.3 809.11 838.62 821.67 723.82 790.12 567.04 732.67 419.67 654.97 306.38 576.01 296.15 511.04 402.57 444.59 600.2 397.97 789.48 377.39 852.96 356.82 767.43 364.25 602.92 395.04 426.13 424.36 325.08 471.22 314.64 521.95 375.25 552.43 474.08 562.17 565.27 534.53 663.25 464.78 727.83 355.27 748.41 224.16 769.01 98.57 743.64 11.89 681.31 -24.04 625.78 -15.57 559.04 34.21 525.37 104.68 562.74 192.08 685.59 275.85 877.45 342.38 1057.04 408.9 1150.95 454.92 1087.55 475.49Q1087.48 475.5 1087.48 475.5" opacity="0.38"></path></g></svg>